<svg xmlns="http://www.w3.org/2000/svg" xmlns:xlink="http://www.w3.org/1999/xlink" width="40" zoomAndPan="magnify" viewBox="0 0 30 30.000001" height="40" preserveAspectRatio="xMidYMid meet" version="1.0"><defs><clipPath id="8cd7a52505"><path d="M 2.648438 4.628906 L 29.253906 4.628906 L 29.253906 7.589844 L 2.648438 7.589844 Z M 2.648438 4.628906 " clip-rule="nonzero"/></clipPath><clipPath id="c8a4ea09d5"><path d="M 3.675781 4.644531 C 27.121094 4.863281 28.5 5.152344 28.933594 5.734375 C 29.226562 5.953125 29.296875 6.386719 29.226562 6.605469 C 29.082031 6.824219 28.5 7.183594 28.28125 7.113281 C 27.992188 7.039062 27.554688 6.386719 27.628906 6.097656 C 27.703125 5.878906 28.71875 5.515625 28.933594 5.660156 C 29.082031 5.804688 28.863281 7.039062 28.644531 7.113281 C 28.425781 7.183594 27.554688 6.460938 27.628906 6.167969 C 27.703125 5.953125 28.789062 5.515625 28.933594 5.734375 C 29.152344 5.878906 29.152344 6.675781 28.789062 7.039062 C 27.917969 7.839844 23.636719 7.402344 20.371094 7.476562 C 15.796875 7.476562 5.855469 7.984375 3.675781 6.824219 C 3.023438 6.460938 2.589844 5.878906 2.660156 5.515625 C 2.660156 5.152344 3.675781 4.644531 3.675781 4.644531 " clip-rule="nonzero"/></clipPath><clipPath id="2048814cdf"><path d="M 0.648438 0.644531 L 27.253906 0.644531 L 27.253906 3.589844 L 0.648438 3.589844 Z M 0.648438 0.644531 " clip-rule="nonzero"/></clipPath><clipPath id="4d52664531"><path d="M 1.675781 0.644531 C 25.121094 0.863281 26.5 1.152344 26.933594 1.734375 C 27.226562 1.953125 27.296875 2.386719 27.226562 2.605469 C 27.082031 2.824219 26.5 3.183594 26.28125 3.113281 C 25.992188 3.039062 25.554688 2.386719 25.628906 2.097656 C 25.703125 1.878906 26.71875 1.515625 26.933594 1.660156 C 27.082031 1.804688 26.863281 3.039062 26.644531 3.113281 C 26.425781 3.183594 25.554688 2.460938 25.628906 2.167969 C 25.703125 1.953125 26.789062 1.515625 26.933594 1.734375 C 27.152344 1.878906 27.152344 2.675781 26.789062 3.039062 C 25.917969 3.839844 21.636719 3.402344 18.371094 3.476562 C 13.796875 3.476562 3.855469 3.984375 1.675781 2.824219 C 1.023438 2.460938 0.589844 1.878906 0.660156 1.515625 C 0.660156 1.152344 1.675781 0.644531 1.675781 0.644531 " clip-rule="nonzero"/></clipPath><clipPath id="b932ef8453"><rect x="0" width="28" y="0" height="4"/></clipPath><clipPath id="bc22e3cd34"><path d="M 2.914062 14.878906 L 29.515625 14.878906 L 29.515625 18.363281 L 2.914062 18.363281 Z M 2.914062 14.878906 " clip-rule="nonzero"/></clipPath><clipPath id="0bf1e52ac2"><path d="M 3.75 14.878906 C 21.53125 15.75 25.015625 14.734375 26.539062 15.167969 C 27.265625 15.386719 27.484375 16.113281 27.917969 16.183594 C 28.355469 16.257812 29.007812 15.675781 29.226562 15.894531 C 29.445312 15.96875 29.589844 16.621094 29.445312 16.839844 C 29.371094 17.054688 28.789062 17.347656 28.574219 17.273438 C 28.28125 17.203125 27.847656 16.546875 27.917969 16.257812 C 27.992188 16.039062 28.71875 15.605469 28.933594 15.675781 C 29.226562 15.75 29.589844 16.476562 29.515625 16.765625 C 29.296875 17.273438 27.628906 17.492188 26.394531 17.78125 C 24.363281 18.144531 21.460938 18.363281 18.410156 18.363281 C 14.417969 18.289062 6.796875 17.855469 4.476562 17.054688 C 3.675781 16.765625 3.023438 16.476562 2.953125 16.039062 C 2.878906 15.75 3.75 14.878906 3.75 14.878906 " clip-rule="nonzero"/></clipPath><clipPath id="64e90b3f3f"><path d="M 0.914062 0.878906 L 27.515625 0.878906 L 27.515625 4.363281 L 0.914062 4.363281 Z M 0.914062 0.878906 " clip-rule="nonzero"/></clipPath><clipPath id="09fa0e1635"><path d="M 1.75 0.878906 C 19.53125 1.75 23.015625 0.734375 24.539062 1.167969 C 25.265625 1.386719 25.484375 2.113281 25.917969 2.183594 C 26.355469 2.257812 27.007812 1.675781 27.226562 1.894531 C 27.445312 1.96875 27.589844 2.621094 27.445312 2.839844 C 27.371094 3.054688 26.789062 3.347656 26.574219 3.273438 C 26.28125 3.203125 25.847656 2.546875 25.917969 2.257812 C 25.992188 2.039062 26.71875 1.605469 26.933594 1.675781 C 27.226562 1.75 27.589844 2.476562 27.515625 2.765625 C 27.296875 3.273438 25.628906 3.492188 24.394531 3.78125 C 22.363281 4.144531 19.460938 4.363281 16.410156 4.363281 C 12.417969 4.289062 4.796875 3.855469 2.476562 3.054688 C 1.675781 2.765625 1.023438 2.476562 0.953125 2.039062 C 0.878906 1.75 1.75 0.878906 1.75 0.878906 " clip-rule="nonzero"/></clipPath><clipPath id="9c52aca0b4"><rect x="0" width="28" y="0" height="5"/></clipPath><clipPath id="0192565625"><path d="M 2.5 23 L 29.246094 23 L 29.246094 26.941406 L 2.5 26.941406 Z M 2.5 23 " clip-rule="nonzero"/></clipPath><clipPath id="5c23228fe5"><path d="M 3.316406 24.097656 C 16.234375 24.167969 20.007812 23.082031 22.839844 23.007812 C 25.015625 23.007812 27.773438 23.007812 28.71875 23.515625 C 29.082031 23.734375 29.226562 24.097656 29.226562 24.386719 C 29.226562 24.605469 28.863281 25.113281 28.574219 25.113281 C 28.355469 25.183594 27.703125 24.75 27.628906 24.460938 C 27.554688 24.167969 28.066406 23.589844 28.355469 23.515625 C 28.574219 23.445312 29.082031 23.734375 29.152344 24.023438 C 29.296875 24.316406 29.152344 24.75 28.71875 25.113281 C 27.121094 26.203125 17.976562 26.855469 13.476562 26.925781 C 9.992188 27 5.710938 26.78125 3.96875 26.203125 C 3.242188 25.910156 2.589844 25.546875 2.515625 25.183594 C 2.515625 24.824219 3.316406 24.097656 3.316406 24.097656 " clip-rule="nonzero"/></clipPath><clipPath id="8aeb729d55"><path d="M 0.5 0 L 27.246094 0 L 27.246094 3.941406 L 0.5 3.941406 Z M 0.5 0 " clip-rule="nonzero"/></clipPath><clipPath id="36d10e4962"><path d="M 1.316406 1.097656 C 14.234375 1.167969 18.007812 0.0820312 20.839844 0.0078125 C 23.015625 0.0078125 25.773438 0.0078125 26.71875 0.515625 C 27.082031 0.734375 27.226562 1.097656 27.226562 1.386719 C 27.226562 1.605469 26.863281 2.113281 26.574219 2.113281 C 26.355469 2.183594 25.703125 1.75 25.628906 1.460938 C 25.554688 1.167969 26.066406 0.589844 26.355469 0.515625 C 26.574219 0.445312 27.082031 0.734375 27.152344 1.023438 C 27.296875 1.316406 27.152344 1.75 26.71875 2.113281 C 25.121094 3.203125 15.976562 3.855469 11.476562 3.925781 C 7.992188 4 3.710938 3.78125 1.96875 3.203125 C 1.242188 2.910156 0.589844 2.546875 0.515625 2.183594 C 0.515625 1.824219 1.316406 1.097656 1.316406 1.097656 " clip-rule="nonzero"/></clipPath><clipPath id="4a064101d5"><rect x="0" width="28" y="0" height="4"/></clipPath></defs><g clip-path="url(#8cd7a52505)"><g clip-path="url(#c8a4ea09d5)"><g transform="matrix(1, 0, 0, 1, 2, 4)"><g clip-path="url(#b932ef8453)"><g clip-path="url(#2048814cdf)"><g clip-path="url(#4d52664531)"><rect x="-8.6" width="43.2" fill="#1e1e1e" height="43.200001" y="-10.6" fill-opacity="1"/></g></g></g></g></g></g><g clip-path="url(#bc22e3cd34)"><g clip-path="url(#0bf1e52ac2)"><g transform="matrix(1, 0, 0, 1, 2, 14)"><g clip-path="url(#9c52aca0b4)"><g clip-path="url(#64e90b3f3f)"><g clip-path="url(#09fa0e1635)"><rect x="-8.6" width="43.2" fill="#1e1e1e" height="43.200001" y="-20.6" fill-opacity="1"/></g></g></g></g></g></g><g clip-path="url(#0192565625)"><g clip-path="url(#5c23228fe5)"><g transform="matrix(1, 0, 0, 1, 2, 23)"><g clip-path="url(#4a064101d5)"><g clip-path="url(#8aeb729d55)"><g clip-path="url(#36d10e4962)"><rect x="-8.6" width="43.2" fill="#1e1e1e" height="43.200001" y="-29.6" fill-opacity="1"/></g></g></g></g></g></g></svg>