<svg xmlns="http://www.w3.org/2000/svg" xmlns:xlink="http://www.w3.org/1999/xlink" width="40" zoomAndPan="magnify" viewBox="0 0 30 30.000001" height="40" preserveAspectRatio="xMidYMid meet" version="1.0"><defs><clipPath id="c7c47c42cd"><path d="M 2.898438 2.058594 L 27.847656 2.058594 L 27.847656 27.125 L 2.898438 27.125 Z M 2.898438 2.058594 " clip-rule="nonzero"/></clipPath><clipPath id="34b0800fc0"><path d="M 27.339844 3.917969 C 15.507812 14.804688 10.425781 22.28125 7.523438 24.75 C 6.074219 25.984375 4.621094 27.144531 3.894531 27 C 3.460938 26.925781 2.953125 25.984375 3.097656 25.765625 C 3.167969 25.546875 3.96875 25.402344 4.257812 25.546875 C 4.476562 25.695312 4.546875 26.566406 4.402344 26.710938 C 4.183594 26.855469 3.097656 26.710938 2.953125 26.347656 C 2.660156 25.621094 4.910156 23.296875 6.507812 21.339844 C 9.121094 18.074219 13.984375 12.703125 17.394531 9.289062 C 20.082031 6.605469 23.054688 3.265625 25.089844 2.46875 C 26.105469 2.105469 27.484375 2.03125 27.773438 2.46875 C 27.992188 2.683594 27.339844 3.917969 27.339844 3.917969 " clip-rule="nonzero"/></clipPath><clipPath id="05e19c6162"><path d="M 0.898438 0.0585938 L 25.847656 0.0585938 L 25.847656 25.125 L 0.898438 25.125 Z M 0.898438 0.0585938 " clip-rule="nonzero"/></clipPath><clipPath id="7ff97a28d7"><path d="M 25.339844 1.917969 C 13.507812 12.804688 8.425781 20.28125 5.523438 22.75 C 4.074219 23.984375 2.621094 25.144531 1.894531 25 C 1.460938 24.925781 0.953125 23.984375 1.097656 23.765625 C 1.167969 23.546875 1.96875 23.402344 2.257812 23.546875 C 2.476562 23.695312 2.546875 24.566406 2.402344 24.710938 C 2.183594 24.855469 1.097656 24.710938 0.953125 24.347656 C 0.660156 23.621094 2.910156 21.296875 4.507812 19.339844 C 7.121094 16.074219 11.984375 10.703125 15.394531 7.289062 C 18.082031 4.605469 21.054688 1.265625 23.089844 0.46875 C 24.105469 0.105469 25.484375 0.03125 25.773438 0.46875 C 25.992188 0.683594 25.339844 1.917969 25.339844 1.917969 " clip-rule="nonzero"/></clipPath><clipPath id="aeaa7beb68"><rect x="0" width="26" y="0" height="26"/></clipPath><clipPath id="1a5bab549f"><path d="M 2.167969 2 L 29.378906 2 L 29.378906 26.894531 L 2.167969 26.894531 Z M 2.167969 2 " clip-rule="nonzero"/></clipPath><clipPath id="356c566fa8"><path d="M 3.894531 2.25 C 11.152344 9.144531 16.304688 12.195312 19.644531 15.097656 C 22.765625 17.710938 26.394531 21.195312 27.917969 23.296875 C 28.644531 24.316406 29.445312 25.402344 29.226562 25.984375 C 29.152344 26.417969 28.210938 26.855469 27.992188 26.78125 C 27.773438 26.636719 27.628906 25.765625 27.773438 25.546875 C 27.917969 25.332031 28.789062 25.257812 28.933594 25.402344 C 29.082031 25.621094 28.789062 26.855469 28.574219 26.855469 C 28.355469 26.925781 27.628906 25.839844 27.703125 25.621094 C 27.847656 25.476562 29.152344 25.621094 29.226562 25.839844 C 29.226562 25.984375 28.574219 26.78125 27.992188 26.78125 C 26.25 26.636719 21.53125 20.03125 17.976562 17.054688 C 14.492188 14.082031 9.703125 11.324219 6.945312 8.855469 C 4.984375 7.113281 2.878906 5.226562 2.445312 3.917969 C 2.152344 3.195312 2.226562 2.394531 2.515625 2.105469 C 2.734375 1.886719 3.894531 2.25 3.894531 2.25 " clip-rule="nonzero"/></clipPath><clipPath id="69261d9b6e"><path d="M 0.167969 0 L 27.378906 0 L 27.378906 24.894531 L 0.167969 24.894531 Z M 0.167969 0 " clip-rule="nonzero"/></clipPath><clipPath id="9319448538"><path d="M 1.894531 0.25 C 9.152344 7.144531 14.304688 10.195312 17.644531 13.097656 C 20.765625 15.710938 24.394531 19.195312 25.917969 21.296875 C 26.644531 22.316406 27.445312 23.402344 27.226562 23.984375 C 27.152344 24.417969 26.210938 24.855469 25.992188 24.78125 C 25.773438 24.636719 25.628906 23.765625 25.773438 23.546875 C 25.917969 23.332031 26.789062 23.257812 26.933594 23.402344 C 27.082031 23.621094 26.789062 24.855469 26.574219 24.855469 C 26.355469 24.925781 25.628906 23.839844 25.703125 23.621094 C 25.847656 23.476562 27.152344 23.621094 27.226562 23.839844 C 27.226562 23.984375 26.574219 24.78125 25.992188 24.78125 C 24.25 24.636719 19.53125 18.03125 15.976562 15.054688 C 12.492188 12.082031 7.703125 9.324219 4.945312 6.855469 C 2.984375 5.113281 0.878906 3.226562 0.445312 1.917969 C 0.152344 1.195312 0.226562 0.394531 0.515625 0.105469 C 0.734375 -0.113281 1.894531 0.25 1.894531 0.25 " clip-rule="nonzero"/></clipPath><clipPath id="b9490f6c98"><rect x="0" width="28" y="0" height="25"/></clipPath></defs><g clip-path="url(#c7c47c42cd)"><g clip-path="url(#34b0800fc0)"><g transform="matrix(1, 0, 0, 1, 2, 2)"><g clip-path="url(#aeaa7beb68)"><g clip-path="url(#05e19c6162)"><g clip-path="url(#7ff97a28d7)"><rect x="-8.6" width="43.2" fill="#1e1e1e" height="43.200001" y="-8.6" fill-opacity="1"/></g></g></g></g></g></g><g clip-path="url(#1a5bab549f)"><g clip-path="url(#356c566fa8)"><g transform="matrix(1, 0, 0, 1, 2, 2)"><g clip-path="url(#b9490f6c98)"><g clip-path="url(#69261d9b6e)"><g clip-path="url(#9319448538)"><rect x="-8.6" width="43.2" fill="#1e1e1e" height="43.200001" y="-8.6" fill-opacity="1"/></g></g></g></g></g></g></svg>